<svg width="234" height="393" viewBox="0 0 234 393" fill="none" xmlns="http://www.w3.org/2000/svg">
<path fill-rule="evenodd" clip-rule="evenodd" d="M19.4707 0.914549C62.7531 4.57672 101.118 28.6212 132.98 58.1386C162.015 85.0363 174.424 122.569 190.043 158.933C207.534 199.655 247.556 242.12 229.363 282.533C210.82 323.724 149.742 317.776 109.391 338.092C77.9729 353.911 54.1167 382.122 19.4707 388.211C-19.9307 395.137 -64.1972 397.534 -96.7828 374.33C-129.454 351.064 -140.898 308.251 -148.194 268.815C-154.76 233.327 -141.758 199.513 -135.711 163.933C-128.322 120.452 -139.322 69.6186 -108.911 37.6719C-77.4524 4.62429 -25.9975 -2.93257 19.4707 0.914549Z" fill="#C9E9FF"/>
</svg>
