<svg width="279" height="608" viewBox="0 0 279 608" fill="none" xmlns="http://www.w3.org/2000/svg">
<path fill-rule="evenodd" clip-rule="evenodd" d="M285.535 0.614859C340.874 6.44121 380.365 54.3773 417.999 95.3847C449.095 129.27 466.581 170.574 481.454 214.101C496.58 258.366 518.353 304.29 504.667 349.021C490.898 394.027 440.356 413.049 409.672 448.727C365.412 500.191 351.036 586.073 285.535 603.821C220.156 621.536 148.747 580.118 100.575 532.479C55.6023 488.003 54.24 419.429 37.413 358.445C21.5263 300.868 -13.0304 243.538 5.15218 186.645C23.3595 129.675 81.3148 98.2399 131.138 65.1828C178.791 33.5655 228.669 -5.37226 285.535 0.614859Z" fill="#C9E9FF"/>
</svg>
