<svg width="268" height="296" viewBox="0 0 268 296" fill="none" xmlns="http://www.w3.org/2000/svg">
<path fill-rule="evenodd" clip-rule="evenodd" d="M97.1606 29.2426C134.869 28.4664 169.528 -11.2277 204.4 3.1255C239.238 17.4648 252.805 60.5684 261.971 97.0775C270.688 131.797 271.434 170.155 254.217 201.547C238.276 230.611 204.019 241.844 174.392 256.757C149.725 269.173 124.386 275.945 97.1606 280.601C63.6919 286.325 24.5035 308.113 -2.01149 286.924C-28.7668 265.543 -7.46953 220.515 -18.5542 188.129C-29.9362 154.873 -69.1659 132.392 -66.9062 97.3188C-64.5336 60.4932 -41.03 21.6306 -6.91492 7.47526C26.6388 -6.44718 60.8351 29.9904 97.1606 29.2426Z" fill="#C9E9FF"/>
</svg>
