<svg width="182" height="647" viewBox="0 0 182 647" fill="none" xmlns="http://www.w3.org/2000/svg">
<path fill-rule="evenodd" clip-rule="evenodd" d="M319.315 2.83614C384.846 15.6421 421.003 82.7625 465.341 132.688C499.621 171.288 527.87 211.773 547.331 259.589C568.338 311.205 587.373 363.528 581.86 418.982C575.291 485.045 564.223 558.096 513.405 600.818C461.632 644.342 385.136 655.261 319.315 639.696C259.316 625.508 224.326 567.442 182.139 522.482C148.556 486.692 125.173 446.854 99.2574 405.176C62.9565 346.797 -4.9153 298.565 0.282172 230.016C5.60102 159.866 67.6548 106.978 124.961 66.1711C181.857 25.6563 250.764 -10.5598 319.315 2.83614Z" fill="#C9E9FF"/>
</svg>
