<svg width="22" height="25" viewBox="0 0 22 25" fill="none" xmlns="http://www.w3.org/2000/svg">
<path fill-rule="evenodd" clip-rule="evenodd" d="M2.32066 5C2.12735 5 1.94196 5.0878 1.80528 5.24408C1.66859 5.40036 1.5918 5.61232 1.5918 5.83333C1.5918 6.05435 1.66859 6.26631 1.80528 6.42259C1.94196 6.57887 2.12735 6.66667 2.32066 6.66667H19.8134C20.0067 6.66667 20.1921 6.57887 20.3288 6.42259C20.4654 6.26631 20.5422 6.05435 20.5422 5.83333C20.5422 5.61232 20.4654 5.40036 20.3288 5.24408C20.1921 5.0878 20.0067 5 19.8134 5H2.32066ZM1.5918 12.5C1.5918 12.279 1.66859 12.067 1.80528 11.9107C1.94196 11.7545 2.12735 11.6667 2.32066 11.6667H19.8134C20.0067 11.6667 20.1921 11.7545 20.3288 11.9107C20.4654 12.067 20.5422 12.279 20.5422 12.5C20.5422 12.721 20.4654 12.933 20.3288 13.0893C20.1921 13.2455 20.0067 13.3333 19.8134 13.3333H2.32066C2.12735 13.3333 1.94196 13.2455 1.80528 13.0893C1.66859 12.933 1.5918 12.721 1.5918 12.5ZM1.5918 19.1667C1.5918 18.9457 1.66859 18.7337 1.80528 18.5774C1.94196 18.4211 2.12735 18.3333 2.32066 18.3333H19.8134C20.0067 18.3333 20.1921 18.4211 20.3288 18.5774C20.4654 18.7337 20.5422 18.9457 20.5422 19.1667C20.5422 19.3877 20.4654 19.5996 20.3288 19.7559C20.1921 19.9122 20.0067 20 19.8134 20H2.32066C2.12735 20 1.94196 19.9122 1.80528 19.7559C1.66859 19.5996 1.5918 19.3877 1.5918 19.1667Z" fill="black"/>
</svg>
