<svg width="36" height="36" viewBox="0 0 36 36" fill="none" xmlns="http://www.w3.org/2000/svg">
<path d="M9.05631 27.2812C8.77506 27.225 8.55006 27.1687 8.26881 27.0562C7.98756 26.9437 7.76256 26.8875 7.53756 26.775C7.03131 26.55 6.58131 26.2687 6.13131 25.9312C5.23131 25.3125 4.50006 24.4687 3.93756 23.4562C3.37506 22.5 3.03756 21.375 2.98131 20.3062C2.92506 19.7437 2.98131 19.2375 3.03756 18.675C3.09381 18.3937 3.15006 18.1687 3.20631 17.8875C3.26256 17.6062 3.37506 17.3812 3.43131 17.1L3.48756 17.8875C3.48756 18.1687 3.54381 18.3937 3.60006 18.675C3.65631 19.1812 3.76881 19.6875 3.88131 20.1375C4.10631 21.0937 4.44381 21.9937 4.95006 22.8375C5.45631 23.6812 6.01881 24.4687 6.75006 25.2C7.08756 25.5375 7.48131 25.875 7.87506 26.2125C8.04381 26.3812 8.26881 26.55 8.49381 26.7187L9.05631 27.2812Z" fill="#42ADE2"/>
<path d="M8.8875 29.3062C8.71875 29.4187 8.49375 29.475 8.26875 29.5312C8.04375 29.5875 7.875 29.6437 7.65 29.6437C7.25625 29.7 6.80625 29.7562 6.35625 29.7C5.5125 29.6437 4.6125 29.4187 3.88125 29.025C3.09375 28.6312 2.41875 28.0125 1.96875 27.2812C1.74375 26.9437 1.51875 26.55 1.35 26.1562C1.29375 25.9875 1.2375 25.7625 1.18125 25.5375C1.18125 25.3687 1.125 25.2 1.125 24.975C1.29375 25.1437 1.40625 25.2562 1.51875 25.425C1.6875 25.5937 1.8 25.7625 1.9125 25.875C2.19375 26.1562 2.41875 26.4375 2.7 26.6625C3.2625 27.1687 3.825 27.6187 4.5 27.9562C5.11875 28.2937 5.85 28.575 6.525 28.8C6.8625 28.9125 7.25625 28.9687 7.65 29.0812C7.81875 29.1375 8.04375 29.1375 8.2125 29.1937C8.49375 29.25 8.6625 29.25 8.8875 29.3062Z" fill="#42ADE2"/>
<path d="M21.6 1.96875C21.8812 2.025 22.1062 2.1375 22.3875 2.25C22.6687 2.3625 22.8937 2.475 23.1187 2.5875C23.625 2.86875 24.075 3.15 24.525 3.4875C25.425 4.1625 26.1562 5.0625 26.6625 6.075C27.1687 7.0875 27.45 8.2125 27.45 9.28125C27.45 9.84375 27.3937 10.35 27.2812 10.9125C27.225 11.1937 27.1687 11.4187 27.0562 11.7C26.9437 11.9812 26.8875 12.2063 26.775 12.4313L26.7187 11.6438C26.7187 11.3625 26.7187 11.1375 26.6625 10.8562L26.4937 9.3375C26.325 8.38125 25.9875 7.425 25.5375 6.525C25.0875 5.625 24.525 4.8375 23.85 4.10625C23.5125 3.7125 23.1187 3.375 22.7812 2.98125C22.6125 2.8125 22.3875 2.64375 22.1625 2.475L21.6 1.96875Z" fill="#42ADE2"/>
<path d="M26.4938 1.74377C26.7188 1.80002 26.8875 1.85627 27.0563 1.96877C27.225 2.02502 27.45 2.13752 27.6188 2.25002C27.9563 2.47502 28.2938 2.70002 28.6313 2.98127C29.25 3.54377 29.7563 4.21877 30.0375 5.00627C30.375 5.79377 30.4875 6.63752 30.375 7.48127C30.3188 7.87502 30.2063 8.26877 30.0938 8.66252C30.0375 8.83127 29.925 9.05627 29.8688 9.22502C29.7563 9.39377 29.7 9.56252 29.5313 9.73127V8.60627C29.5313 8.21252 29.475 7.87502 29.475 7.53752C29.3625 6.80627 29.25 6.13127 28.9688 5.51252C28.6875 4.83752 28.35 4.27502 27.9563 3.65627C27.7313 3.37502 27.5063 3.03752 27.2813 2.75627C27.1688 2.58752 27.0563 2.47502 26.8875 2.30627C26.775 2.02502 26.6063 1.85627 26.4938 1.74377Z" fill="#42ADE2"/>
<path d="M5.62501 10.1251C4.5 10.6313 4.10625 11.9813 4.6125 13.1063L11.7 27.9001L15.6375 26.0438L8.55 11.1938C8.04375 10.0688 6.75001 9.56255 5.62501 10.1251Z" fill="#D6A57C"/>
<path d="M24.2437 21.8813L28.4062 19.8563L20.3062 2.98128C19.7437 1.85628 18.3937 1.35003 17.2125 1.91253C16.0875 2.47503 15.5812 3.82503 16.1437 5.00628L24.2437 21.8813Z" fill="#D6A57C"/>
<path d="M17.2688 1.91253C17.1563 1.96878 17.0438 2.02503 16.9313 2.13753C18 1.85628 19.125 2.36253 19.6313 3.37503L27.7313 20.25L28.4625 19.9125L20.3625 3.03753C19.8 1.85628 18.45 1.35003 17.2688 1.91253Z" fill="#B58360"/>
<path d="M15.6375 25.9876L19.9687 23.9063L11.7 6.69382C11.1375 5.51257 9.67496 4.95007 8.49371 5.51257C7.31246 6.07507 6.80621 7.53757 7.36871 8.71882L15.6375 25.9876Z" fill="#D6A57C"/>
<path d="M8.49375 5.56882C8.38125 5.62507 8.26875 5.68132 8.15625 5.79382C9.225 5.51257 10.4625 6.01882 10.9687 7.08757L16.0875 17.8313L17.325 18.5626L11.7 6.75007C11.1375 5.51257 9.73125 5.00632 8.49375 5.56882Z" fill="#B58360"/>
<path d="M19.2937 22.5562L23.625 20.4749L15.3562 3.26245C14.7937 2.0812 13.3312 1.5187 12.15 2.13745C10.9687 2.69995 10.4625 4.16245 11.025 5.3437L19.2937 22.5562Z" fill="#D6A57C"/>
<path d="M12.15 2.08127C12.0375 2.13752 11.925 2.25002 11.8125 2.30627C12.8813 2.02502 14.1188 2.53127 14.625 3.60002L20.4187 15.75L21.6562 16.4813L15.3562 3.26252C14.7937 2.02502 13.3313 1.51877 12.15 2.08127Z" fill="#B58360"/>
<path d="M5.62498 10.1251C5.51248 10.1813 5.39998 10.2376 5.28748 10.3501C6.29998 10.0688 7.36873 10.5751 7.81873 11.5876L12.0375 20.4188L13.275 21.1501L8.54998 11.2501C8.04373 10.0688 6.74998 9.56256 5.62498 10.1251Z" fill="#B58360"/>
<path d="M34.1999 8.43752C32.6812 7.25627 30.2062 8.55002 28.9687 12.6C28.1249 15.4125 28.0124 16.2563 26.2124 17.1L25.1999 15.0188C25.1999 15.0188 9.22494 22.725 9.84369 23.9625C9.84369 23.9625 11.7562 29.925 15.0187 32.6813C19.8562 36.7875 31.1624 32.4 31.6687 21.6563C31.9499 15.4125 35.8312 9.73127 34.1999 8.43752Z" fill="#D6A57C"/>
<path d="M34.2 8.43745C33.9187 8.21245 33.5812 8.09995 33.2437 8.0437C33.3 8.09995 33.4125 8.09995 33.4687 8.1562C35.1562 9.44995 33.4125 12.4312 32.4562 15.1312C31.6687 17.2687 30.9937 19.4625 31.1062 21.6C31.5562 30.9375 22.1625 35.3812 16.5375 33.6937C22.05 35.9999 32.2875 31.6124 31.8375 21.8812C31.725 19.7437 32.3437 17.6624 33.1875 15.4124C34.0875 12.7125 35.8312 9.7312 34.2 8.43745Z" fill="#B58360"/>
<path d="M26.7188 16.875C23.2313 17.2687 18.1125 22.275 21.7125 27.7312C19.0688 22.2187 23.4 18.5063 26.1563 17.2125C26.4375 16.9875 26.7188 16.875 26.7188 16.875Z" fill="#B58360"/>
</svg>
